<?xml version="1.0" standalone="no"?>
<!DOCTYPE svg PUBLIC "-//W3C//DTD SVG 20010904//EN"
 "http://www.w3.org/TR/2001/REC-SVG-20010904/DTD/svg10.dtd">
<svg version="1.0" xmlns="http://www.w3.org/2000/svg"
 width="2200.000000pt" height="2200.000000pt" viewBox="0 0 2200.000000 2200.000000"
 preserveAspectRatio="xMidYMid meet">
<metadata>
Created by potrace 1.14, written by Peter Selinger 2001-2017
</metadata>
<g transform="translate(0.000000,2200.000000) scale(0.100000,-0.100000)"
fill="#000000" stroke="none">
<path d="M10845 15893 c-1029 -93 -1988 -506 -2771 -1195 -139 -121 -432 -422
-545 -558 -633 -762 -1008 -1651 -1104 -2619 -33 -335 -29 -800 10 -1130 8
-69 13 -127 11 -129 -20 -19 -1976 -161 -3194 -232 -648 -38 -1073 -66 -1124
-76 -94 -18 -130 -34 -176 -77 -31 -30 -32 -34 -32 -107 l0 -77 58 -55 c61
-58 69 -61 222 -88 36 -6 144 -19 240 -29 l175 -19 -415 -1 c-416 -2 -627 -11
-730 -32 -47 -10 -64 -20 -113 -69 l-57 -57 0 -76 c0 -75 1 -78 38 -118 20
-23 51 -48 69 -55 79 -34 538 -75 1778 -159 615 -42 2049 -151 2750 -209 160
-13 458 -37 663 -52 204 -16 372 -31 372 -35 0 -3 -51 -9 -112 -13 -174 -11
-193 -16 -249 -72 l-49 -48 0 -91 0 -91 38 -37 c52 -50 96 -57 383 -57 l238 0
84 -113 c202 -271 520 -612 776 -830 776 -662 1684 -1053 2701 -1164 202 -22
825 -25 1010 -5 837 90 1536 335 2199 769 303 198 563 415 841 699 385 394
661 782 895 1259 258 526 412 1068 471 1665 22 215 24 747 5 950 -38 409 -114
767 -242 1140 -33 96 -60 179 -62 183 -3 13 722 330 1398 612 1223 510 1632
732 2865 1555 129 86 250 165 268 174 42 22 169 142 188 177 9 18 14 59 14
113 0 80 -2 87 -32 127 -18 23 -50 56 -71 73 -39 31 -40 31 -160 31 l-122 0
-150 -67 c-505 -225 -1209 -514 -1490 -612 -858 -297 -1906 -508 -2870 -576
-271 -19 -303 -28 -392 -113 -74 -70 -110 -133 -193 -342 -100 -248 -223 -508
-277 -583 -126 -177 -396 -321 -1538 -824 -454 -201 -446 -198 -277 -92 147
92 655 434 836 563 209 149 339 256 482 394 149 144 240 249 329 382 132 197
171 311 163 472 -8 167 -69 249 -370 500 -199 165 -291 235 -453 344 -581 391
-1231 647 -1925 758 -267 43 -399 51 -827 49 -224 -1 -426 -3 -448 -5z m690
-543 c958 -62 1845 -414 2580 -1025 128 -106 175 -157 175 -188 0 -78 -178
-273 -405 -444 -50 -37 -765 -525 -1590 -1083 -1356 -918 -1509 -1024 -1598
-1109 -129 -125 -150 -167 -146 -290 4 -84 6 -92 34 -121 50 -53 73 -60 194
-60 156 0 241 20 506 117 1551 572 2349 885 2950 1158 437 199 713 366 943
573 l70 62 7 -56 c7 -62 34 -141 94 -287 141 -340 247 -764 298 -1192 24 -205
24 -612 -1 -820 -102 -879 -422 -1653 -959 -2320 -581 -720 -1390 -1239 -2307
-1479 -694 -182 -1375 -187 -2073 -17 -679 166 -1303 486 -1844 948 -131 111
-373 356 -471 475 l-62 77 42 5 c61 9 632 60 1123 101 567 47 624 53 670 66
27 7 60 31 103 73 l62 63 0 62 c0 60 -2 64 -46 111 -52 56 -119 83 -244 100
-127 16 -984 83 -2159 167 l-535 38 1260 5 c1416 6 1296 -2 1382 83 l42 41 0
78 c0 78 0 79 -40 122 -50 54 -111 81 -226 101 -49 8 -451 37 -894 65 -443 28
-1064 68 -1380 90 -580 40 -1157 74 -1460 86 -93 4 -156 11 -145 15 11 4 302
24 646 44 344 20 684 41 755 47 124 10 130 12 162 42 l34 31 -5 80 c-2 44 -16
132 -30 195 -212 948 -26 2058 498 2976 85 149 272 424 379 557 241 303 483
536 796 769 616 457 1337 746 2105 843 259 32 473 40 710 25z m5983 -1305
c-223 -113 -1197 -522 -1622 -682 -102 -38 -464 -163 -473 -163 -2 0 10 26 26
58 43 85 114 254 155 367 53 146 88 203 139 225 62 28 242 49 512 59 355 15
787 75 1183 166 103 23 196 43 207 43 11 1 -46 -32 -127 -73z"/>
</g>
</svg>
